<svg width="90" height="90" viewBox="0 0 90 90" fill="none" xmlns="http://www.w3.org/2000/svg">
<path d="M85.7738 41.8738C85.4149 41.4765 84.9095 41.2494 84.3748 41.2494C75.7233 41.2494 55.2727 47.058 46.8696 64.0836L46.8655 48.5697C56.1473 47.6641 63.6649 40.1975 64.3138 30.7172C65.1231 18.8501 66.4598 15.2521 67.1849 14.1626C67.5511 13.6133 67.6024 12.9102 67.3167 12.3151C67.0311 11.7182 66.4525 11.3172 65.7933 11.2567C65.5083 11.2354 60.9101 10.8578 55.9187 12.1789L46.19 4.17605C45.4906 3.59926 44.4725 3.61025 43.7804 4.19985L34.3797 12.2588C29.2736 10.8395 24.4971 11.2316 24.2064 11.2567C23.5472 11.3172 22.9686 11.7182 22.6829 12.3151C22.3973 12.9102 22.4486 13.6133 22.8148 14.1626C23.5399 15.2521 24.8765 18.8501 25.6859 30.7172C26.3338 40.1828 33.8293 47.6407 43.1155 48.5656L43.1196 64.0625C34.7098 47.0532 14.2729 41.2494 5.62483 41.2494C5.09016 41.2494 4.58479 41.4765 4.22591 41.8738C3.87068 42.2711 3.70222 42.8021 3.76082 43.3313C7.50716 77.041 31.439 86.1707 44.9889 86.2494C44.9925 86.2494 44.9962 86.2494 44.9998 86.2494C45.0035 86.2494 45.0072 86.2494 45.0108 86.2494C58.5606 86.1707 82.4925 77.041 86.2389 43.3313C86.2975 42.8021 86.129 42.2711 85.7738 41.8738ZM60.5711 30.4608C60.058 37.9743 54.194 43.9216 46.8645 44.8174L46.8602 28.197C46.8611 28.1716 46.8748 28.1503 46.8748 28.1244C46.8748 24.2865 48.0724 21.2415 50.4381 19.0772C54.0196 15.7959 59.5311 15.0763 62.7867 14.9591C62.0323 17.4274 61.1534 21.9409 60.5711 30.4608ZM29.4285 30.4608C28.8463 21.9409 27.9674 17.4274 27.213 14.9591C30.4686 15.0763 35.9801 15.7959 39.5616 19.0772C41.9161 21.2312 43.109 24.2604 43.1205 28.0729C43.12 28.091 43.1102 28.1061 43.1102 28.1244L43.1145 44.8177C35.8066 43.9232 29.9417 37.9753 29.4285 30.4608Z" fill="#303C42"/>
</svg>
