<svg width="24" height="24" viewBox="0 0 24 24" fill="none" xmlns="http://www.w3.org/2000/svg">
<path d="M11.6667 0C5.22083 0 0 5.22083 0 11.6667C0 18.1125 5.22083 23.3333 11.6667 23.3333C18.1125 23.3333 23.3333 18.1125 23.3333 11.6667C23.3333 5.22083 18.1125 0 11.6667 0ZM11.6667 21C6.52167 21 2.33333 16.8117 2.33333 11.6667C2.33333 6.52167 6.52167 2.33333 11.6667 2.33333C16.8117 2.33333 21 6.52167 21 11.6667C21 16.8117 16.8117 21 11.6667 21ZM9.42667 10.3425C9.49083 9.96333 9.6075 9.625 9.77667 9.3275C9.94583 9.03 10.1792 8.79083 10.465 8.61C10.7392 8.44083 11.0833 8.3475 11.5092 8.34167C11.7892 8.3475 12.0458 8.39417 12.2675 8.49333C12.5067 8.59833 12.705 8.73833 12.8742 8.91333C13.0433 9.08833 13.1717 9.29833 13.265 9.53167C13.3583 9.765 13.4108 10.0158 13.4225 10.2783H15.5108C15.4933 9.73 15.3825 9.22833 15.19 8.77333C14.9975 8.31833 14.7175 7.9275 14.3675 7.595C14.0175 7.2625 13.5975 7.01167 13.1075 6.83083C12.6175 6.65 12.075 6.55667 11.48 6.55667C10.7217 6.55667 10.0625 6.685 9.5025 6.9475C8.9425 7.21 8.47583 7.56583 8.1025 8.02083C7.72917 8.47583 7.44917 9.00083 7.26833 9.60167C7.0875 10.2025 7 10.8383 7 11.5092V11.83C7 12.5067 7.09333 13.1425 7.27417 13.7433C7.455 14.3442 7.735 14.8692 8.10833 15.3183C8.48167 15.7675 8.94833 16.1233 9.51417 16.3858C10.08 16.6483 10.7392 16.7767 11.4975 16.7767C12.0458 16.7767 12.5592 16.6892 13.0375 16.5083C13.5158 16.3275 13.9358 16.0825 14.2975 15.7675C14.6592 15.4525 14.9508 15.0908 15.1608 14.6708C15.3708 14.2508 15.4933 13.8075 15.5108 13.3292H13.4225C13.4108 13.5742 13.3525 13.7958 13.2475 14.0058C13.1425 14.2158 13.0025 14.3908 12.8275 14.5367C12.6525 14.6825 12.4483 14.7992 12.215 14.8808C11.9933 14.9567 11.76 14.9975 11.5092 14.9975C11.0892 14.9858 10.745 14.8983 10.465 14.7233C10.1733 14.5367 9.94 14.2975 9.77083 14C9.60167 13.7025 9.485 13.3642 9.42083 12.9792C9.35667 12.5942 9.33333 12.2208 9.33333 11.83V11.5092C9.33333 11.1125 9.3625 10.7217 9.42667 10.3425Z" fill="#595959"/>
</svg>
